<svg width="329" height="178" viewBox="0 0 329 178" fill="none" xmlns="http://www.w3.org/2000/svg">
<path d="M29 14C29 6.26801 35.268 0 43 0H297C304.732 0 311 6.26801 311 14V145C311 152.732 304.732 159 297 159H43C35.268 159 29 152.732 29 145V14Z" fill="url(#paint0_linear)" fill-opacity="0.38"/>
<path d="M31.5 14C31.5 7.64872 36.6487 2.5 43 2.5H297C303.351 2.5 308.5 7.64872 308.5 14V145C308.5 151.351 303.351 156.5 297 156.5H43C36.6487 156.5 31.5 151.351 31.5 145V14Z" stroke="black" stroke-opacity="0.3" stroke-width="5"/>
<path d="M169 170.5V159H173H177V170.5L195.5 178H182H177H173H169H164H151.5L169 170.5Z" fill="black" fill-opacity="0.3"/>
<path d="M5 109C5 101.268 11.268 95 19 95H110C117.732 95 124 101.268 124 109V158C124 165.732 117.732 172 110 172H19C11.268 172 5 165.732 5 158V109Z" fill="url(#paint1_linear)" fill-opacity="0.38"/>
<path d="M7.5 109C7.5 102.649 12.6487 97.5 19 97.5H110C116.351 97.5 121.5 102.649 121.5 109V158C121.5 164.351 116.351 169.5 110 169.5H19C12.6487 169.5 7.5 164.351 7.5 158V109Z" stroke="black" stroke-opacity="0.3" stroke-width="5"/>
<rect y="173" width="129" height="5" rx="2.5" fill="black" fill-opacity="0.3"/>
<path d="M300 178C295.582 178 292 174.418 292 170V120C292 115.582 295.582 112 300 112H321C325.418 112 329 115.582 329 120V170C329 174.418 325.418 178 321 178H300Z" fill="url(#paint2_linear)" fill-opacity="0.38"/>
<path d="M300 176.5C296.41 176.5 293.5 173.59 293.5 170V120C293.5 116.41 296.41 113.5 300 113.5H321C324.59 113.5 327.5 116.41 327.5 120V170C327.5 173.59 324.59 176.5 321 176.5H300Z" stroke="black" stroke-opacity="0.3" stroke-width="3"/>
<path d="M226 178C221.582 178 218 174.418 218 170V108C218 103.582 221.582 100 226 100H261C265.418 100 269 103.582 269 108V170C269 174.418 265.418 178 261 178H226Z" fill="url(#paint3_linear)" fill-opacity="0.38"/>
<path d="M226 176.5C222.41 176.5 219.5 173.59 219.5 170V108C219.5 104.41 222.41 101.5 226 101.5H261C264.59 101.5 267.5 104.41 267.5 108V170C267.5 173.59 264.59 176.5 261 176.5H226Z" stroke="black" stroke-opacity="0.3" stroke-width="3"/>
<defs>
<linearGradient id="paint0_linear" x1="278" y1="-5.49999" x2="-19" y2="145.5" gradientUnits="userSpaceOnUse">
<stop stop-color="#FFF0F0" stop-opacity="0.73"/>
<stop offset="0.723958" stop-color="white" stop-opacity="0.08"/>
</linearGradient>
<linearGradient id="paint1_linear" x1="116.5" y1="89.5" x2="-32" y2="193" gradientUnits="userSpaceOnUse">
<stop stop-color="white"/>
<stop offset="0.375" stop-color="white" stop-opacity="0.27"/>
</linearGradient>
<linearGradient id="paint2_linear" x1="329" y1="123" x2="306" y2="161" gradientUnits="userSpaceOnUse">
<stop stop-color="#FFFDFD"/>
<stop offset="0.980895" stop-color="white" stop-opacity="0.49"/>
</linearGradient>
<linearGradient id="paint3_linear" x1="264.5" y1="107" x2="198.5" y2="235.5" gradientUnits="userSpaceOnUse">
<stop offset="0.113191" stop-color="white"/>
<stop offset="0.37914" stop-color="white" stop-opacity="0.08"/>
</linearGradient>
</defs>
</svg>
