<svg width="329" height="178" viewBox="0 0 329 178" fill="none" xmlns="http://www.w3.org/2000/svg">
<path d="M29 14C29 6.26801 35.268 0 43 0H297C304.732 0 311 6.26801 311 14V145C311 152.732 304.732 159 297 159H43C35.268 159 29 152.732 29 145V14Z" fill="url(#paint0_linear)" fill-opacity="0.38"/>
<path d="M31.5 14C31.5 7.64872 36.6487 2.5 43 2.5H297C303.351 2.5 308.5 7.64872 308.5 14V145C308.5 151.351 303.351 156.5 297 156.5H43C36.6487 156.5 31.5 151.351 31.5 145V14Z" stroke="black" stroke-opacity="0.3" stroke-width="5"/>
<path d="M169 170.5V159H173H177V170.5L195.5 178H182H177H173H169H164H151.5L169 170.5Z" fill="black" fill-opacity="0.3"/>
<path d="M5 109C5 101.268 11.268 95 19 95H110C117.732 95 124 101.268 124 109V158C124 165.732 117.732 172 110 172H19C11.268 172 5 165.732 5 158V109Z" fill="url(#paint1_linear)" fill-opacity="0.38"/>
<path d="M7.5 109C7.5 102.649 12.6487 97.5 19 97.5H110C116.351 97.5 121.5 102.649 121.5 109V158C121.5 164.351 116.351 169.5 110 169.5H19C12.6487 169.5 7.5 164.351 7.5 158V109Z" stroke="black" stroke-opacity="0.3" stroke-width="5"/>
<rect y="173" width="129" height="5" rx="2.5" fill="black" fill-opacity="0.3"/>
<path d="M300 178C295.582 178 292 174.418 292 170V120C292 115.582 295.582 112 300 112H321C325.418 112 329 115.582 329 120V170C329 174.418 325.418 178 321 178H300Z" fill="url(#paint2_linear)" fill-opacity="0.38"/>
<path d="M300 176.5C296.41 176.5 293.5 173.59 293.5 170V120C293.5 116.41 296.41 113.5 300 113.5H321C324.59 113.5 327.5 116.41 327.5 120V170C327.5 173.59 324.59 176.5 321 176.5H300Z" stroke="black" stroke-opacity="0.3" stroke-width="3"/>
<path d="M226 178C221.582 178 218 174.418 218 170V108C218 103.582 221.582 100 226 100H261C265.418 100 269 103.582 269 108V170C269 174.418 265.418 178 261 178H226Z" fill="url(#paint3_linear)" fill-opacity="0.38"/>
<path d="M226 176.5C222.41 176.5 219.5 173.59 219.5 170V108C219.5 104.41 222.41 101.5 226 101.5H261C264.59 101.5 267.5 104.41 267.5 108V170C267.5 173.59 264.59 176.5 261 176.5H226Z" stroke="black" stroke-opacity="0.3" stroke-width="3"/>
<path d="M82.9678 88V65.9609H89.749C91.6865 65.9609 93.4172 66.3999 94.9409 67.2778C96.4748 68.1457 97.6706 69.3869 98.5283 71.0015C99.3861 72.606 99.8149 74.4325 99.8149 76.481V77.4951C99.8149 79.5436 99.3911 81.3651 98.5435 82.9595C97.7059 84.5539 96.5202 85.79 94.9863 86.668C93.4525 87.5459 91.7218 87.9899 89.7944 88H82.9678ZM87.5088 69.6392V84.3521H89.7036C91.4797 84.3521 92.8369 83.7718 93.7754 82.6113C94.7139 81.4508 95.1932 79.7909 95.2134 77.6313V76.4658C95.2134 74.2256 94.7492 72.5303 93.8208 71.3799C92.8924 70.2194 91.5352 69.6392 89.749 69.6392H87.5088ZM107.111 73.4082C108.271 72.0156 109.729 71.3193 111.485 71.3193C115.037 71.3193 116.839 73.383 116.889 77.5103V88H112.515V77.6313C112.515 76.6929 112.313 76.0016 111.909 75.5576C111.506 75.1035 110.834 74.8765 109.896 74.8765C108.614 74.8765 107.686 75.3709 107.111 76.3599V88H102.736V64.75H107.111V73.4082ZM129.392 75.7241C128.797 75.6434 128.272 75.603 127.818 75.603C126.163 75.603 125.078 76.1631 124.563 77.2832V88H120.189V71.6221H124.321L124.442 73.5747C125.32 72.0711 126.536 71.3193 128.09 71.3193C128.575 71.3193 129.029 71.3849 129.453 71.5161L129.392 75.7241ZM141.32 86.335C140.24 87.6468 138.747 88.3027 136.839 88.3027C135.083 88.3027 133.741 87.7982 132.813 86.7891C131.895 85.7799 131.425 84.3016 131.405 82.354V71.6221H135.78V82.2026C135.78 83.908 136.557 84.7607 138.111 84.7607C139.594 84.7607 140.613 84.2461 141.168 83.2168V71.6221H145.558V88H141.441L141.32 86.335ZM154.988 82.6567L158.031 71.6221H162.602L157.077 88H152.899L147.375 71.6221H151.946L154.988 82.6567ZM169.656 88H165.115V65.9609H169.656V88ZM177.618 71.6221L177.754 73.5142C178.924 72.0509 180.494 71.3193 182.461 71.3193C184.197 71.3193 185.489 71.8289 186.336 72.8481C187.184 73.8674 187.618 75.3911 187.638 77.4194V88H183.264V77.5254C183.264 76.597 183.062 75.9259 182.658 75.5122C182.255 75.0884 181.583 74.8765 180.645 74.8765C179.414 74.8765 178.491 75.4012 177.875 76.4507V88H173.5V71.6221H177.618ZM207.846 69.6392H201.095V88H196.554V69.6392H189.894V65.9609H207.846V69.6392ZM216.337 88.3027C213.936 88.3027 211.978 87.5661 210.464 86.0928C208.961 84.6195 208.209 82.6567 208.209 80.2046V79.7808C208.209 78.1359 208.527 76.6676 209.163 75.376C209.798 74.0742 210.696 73.0752 211.857 72.3789C213.028 71.6725 214.36 71.3193 215.853 71.3193C218.093 71.3193 219.854 72.0257 221.136 73.4385C222.427 74.8512 223.073 76.8543 223.073 79.4478V81.2339H212.644C212.785 82.3035 213.209 83.1613 213.916 83.8071C214.632 84.453 215.535 84.7759 216.625 84.7759C218.31 84.7759 219.627 84.1654 220.576 82.9443L222.725 85.3511C222.069 86.2795 221.181 87.006 220.061 87.5308C218.941 88.0454 217.7 88.3027 216.337 88.3027ZM215.838 74.8613C214.97 74.8613 214.264 75.154 213.719 75.7393C213.184 76.3245 212.841 77.1621 212.689 78.252H218.774V77.9038C218.754 76.9351 218.492 76.1883 217.987 75.6636C217.483 75.1287 216.766 74.8613 215.838 74.8613ZM232.382 84.7759C233.19 84.7759 233.846 84.5539 234.35 84.1099C234.855 83.6659 235.117 83.0755 235.137 82.3389H239.239C239.229 83.4489 238.926 84.4681 238.331 85.3965C237.736 86.3148 236.918 87.0312 235.879 87.5459C234.85 88.0505 233.709 88.3027 232.458 88.3027C230.117 88.3027 228.27 87.561 226.918 86.0776C225.566 84.5841 224.89 82.5256 224.89 79.9019V79.6143C224.89 77.0915 225.561 75.0783 226.903 73.5747C228.245 72.0711 230.087 71.3193 232.428 71.3193C234.476 71.3193 236.116 71.9046 237.347 73.0752C238.588 74.2357 239.219 75.7847 239.239 77.7222H235.137C235.117 76.8745 234.855 76.1883 234.35 75.6636C233.846 75.1287 233.18 74.8613 232.352 74.8613C231.333 74.8613 230.561 75.2347 230.036 75.9814C229.521 76.7181 229.264 77.9189 229.264 79.584V80.0381C229.264 81.7233 229.521 82.9342 230.036 83.6709C230.551 84.4076 231.333 84.7759 232.382 84.7759ZM246.005 73.4082C247.166 72.0156 248.624 71.3193 250.38 71.3193C253.932 71.3193 255.733 73.383 255.784 77.5103V88H251.409V77.6313C251.409 76.6929 251.207 76.0016 250.804 75.5576C250.4 75.1035 249.729 74.8765 248.791 74.8765C247.509 74.8765 246.581 75.3709 246.005 76.3599V88H241.631V64.75H246.005V73.4082Z" fill="white" fill-opacity="0.8"/>
<defs>
<linearGradient id="paint0_linear" x1="278" y1="-5.49999" x2="-19" y2="145.5" gradientUnits="userSpaceOnUse">
<stop stop-color="#FFF0F0" stop-opacity="0.73"/>
<stop offset="0.723958" stop-color="white" stop-opacity="0.08"/>
</linearGradient>
<linearGradient id="paint1_linear" x1="116.5" y1="89.5" x2="-32" y2="193" gradientUnits="userSpaceOnUse">
<stop stop-color="white"/>
<stop offset="0.375" stop-color="white" stop-opacity="0.27"/>
</linearGradient>
<linearGradient id="paint2_linear" x1="329" y1="123" x2="306" y2="161" gradientUnits="userSpaceOnUse">
<stop stop-color="#FFFDFD"/>
<stop offset="0.980895" stop-color="white" stop-opacity="0.49"/>
</linearGradient>
<linearGradient id="paint3_linear" x1="264.5" y1="107" x2="198.5" y2="235.5" gradientUnits="userSpaceOnUse">
<stop offset="0.113191" stop-color="white"/>
<stop offset="0.37914" stop-color="white" stop-opacity="0.08"/>
</linearGradient>
</defs>
</svg>
