<svg width="57" height="51" viewBox="0 0 57 51" fill="none" xmlns="http://www.w3.org/2000/svg">
<path d="M53.5 50V49L55 47L55.5 48.5L56 50H53.5Z" fill="#754EF9" stroke="#754EF9"/>
<path d="M2 50L3.875 41M43.5 2H12L3.875 41M43.5 2L36 41M43.5 2L52.5 41M34.5 50L36 41M36 41H3.875M36 41C23.1574 41 41.7979 41 52.5 41M52.5 41L54.5 49" stroke="#754EF9" stroke-width="3"/>
<path d="M2 50V51" stroke="#754EF9" stroke-width="3"/>
<path d="M17.0251 21.725C18.1421 21.793 18.649 22.673 19.258 23.383C21.018 25.413 21.018 25.413 22.777 23.483C25.044 20.983 27.312 18.475 29.545 15.97C30.357 15.056 31.3051 14.346 32.3881 15.395C33.4031 16.343 32.8961 17.324 32.0881 18.204C29.0081 21.622 25.929 25.074 22.816 28.458C21.395 30.048 20.549 30.015 19.094 28.39C17.977 27.138 16.8601 25.852 15.7781 24.566C15.5332 24.3296 15.3737 24.0186 15.3247 23.6818C15.2756 23.345 15.3398 23.0014 15.5071 22.705C15.6424 22.4155 15.8566 22.1699 16.125 21.9966C16.3935 21.8233 16.7055 21.7292 17.0251 21.725V21.725Z" fill="#754EF9"/>
<path d="M33 51V49.5L36 50V51H33Z" fill="#754EF9"/>
<path d="M0.5 50L3.5 35.5L1.5 49.5L2 50H0.5Z" fill="#754EF9"/>
</svg>
